<mxfile host="app.diagrams.net" modified="2023-06-02T02:51:44.181Z" agent="Mozilla/5.0 (Windows NT 10.0; Win64; x64) AppleWebKit/537.36 (KHTML, like Gecko) Chrome/113.0.0.0 Safari/537.36" version="21.3.5" etag="4xghyDOb7F6jRCRWfnWr" type="github">
  <diagram name="第 1 页" id="YaiP6IpiFgkoLfCOKYrs">
    <mxGraphModel>
      <root>
        <mxCell id="0" />
        <mxCell id="1" parent="0" />
      </root>
    </mxGraphModel>
  </diagram>
</mxfile>
